<svg id="svg" version="1.1" xmlns="http://www.w3.org/2000/svg" xmlns:xlink="http://www.w3.org/1999/xlink" width="400" height="400" viewBox="0, 0, 400,400"><g id="svgg"><path id="path0" d="M195.400 0.406 C 194.080 0.587,190.930 0.852,188.400 0.994 C 101.963 5.866,25.450 69.600,6.395 152.600 C 5.941 154.580,5.402 156.920,5.198 157.800 C 4.832 159.384,4.560 160.788,3.417 167.000 C 2.190 173.672,0.265 193.566,0.243 199.800 C 0.219 206.724,2.100 225.951,3.590 234.000 C 18.608 315.182,78.627 377.735,157.800 394.720 C 169.379 397.204,175.123 397.981,191.600 399.292 C 199.014 399.882,202.554 399.877,209.200 399.270 C 211.950 399.018,216.450 398.616,219.200 398.375 C 226.634 397.725,231.975 396.942,239.800 395.354 C 241.560 394.997,243.775 394.550,244.723 394.360 C 253.608 392.582,270.418 387.037,280.600 382.526 C 345.303 353.860,390.282 293.257,398.405 223.800 C 398.662 221.600,399.068 218.720,399.308 217.400 C 399.924 214.001,399.911 186.226,399.291 182.600 C 399.028 181.060,398.531 177.460,398.187 174.600 C 388.125 90.929,322.815 20.916,239.600 4.593 C 237.950 4.269,235.700 3.831,234.600 3.618 C 232.883 3.287,227.820 2.563,221.746 1.778 C 219.538 1.493,204.130 0.337,200.600 0.192 C 199.060 0.129,196.720 0.225,195.400 0.406 M214.120 20.405 C 221.453 20.934,232.175 22.490,239.200 24.046 C 263.747 29.482,293.300 42.958,309.200 55.966 C 310.190 56.776,311.630 57.877,312.400 58.413 C 314.257 59.706,322.382 66.550,325.400 69.363 C 326.720 70.593,327.941 71.600,328.113 71.600 C 328.534 71.600,331.200 74.285,331.200 74.708 C 331.200 75.182,333.661 77.436,334.500 77.730 C 334.885 77.865,335.200 78.215,335.200 78.509 C 335.200 79.501,337.943 81.817,338.481 81.279 C 339.217 80.543,339.600 80.705,339.600 81.756 C 339.600 82.281,339.950 83.136,340.377 83.656 L 341.155 84.600 341.582 83.400 C 342.165 81.762,347.426 81.313,348.679 82.795 C 349.076 83.263,349.967 83.999,350.660 84.431 C 351.352 84.862,352.285 85.993,352.731 86.943 C 353.178 87.893,354.006 88.974,354.572 89.345 C 355.137 89.715,355.600 90.253,355.600 90.539 C 355.600 90.826,356.068 91.497,356.639 92.030 C 357.210 92.564,358.028 93.630,358.455 94.400 C 359.291 95.906,360.676 97.979,361.944 99.623 C 367.587 106.937,378.375 129.843,382.751 143.800 C 390.864 169.675,393.626 200.040,390.046 224.000 C 389.832 225.430,389.463 227.917,389.226 229.527 C 385.493 254.886,373.195 285.465,358.426 306.112 C 357.202 307.823,355.791 309.803,355.290 310.512 C 354.790 311.220,353.575 312.790,352.591 314.000 C 351.607 315.210,349.783 317.460,348.537 319.000 C 345.606 322.623,342.327 325.995,341.731 325.998 C 341.473 325.999,340.663 326.695,339.931 327.544 C 338.462 329.249,336.580 330.375,335.380 330.269 C 334.735 330.212,334.606 330.444,334.638 331.609 C 334.675 333.001,334.655 333.018,332.961 333.059 C 330.990 333.107,330.458 332.433,331.630 331.372 C 332.450 330.630,332.647 326.400,331.861 326.400 C 331.183 326.400,327.987 329.900,328.161 330.453 C 328.810 332.517,328.776 333.113,327.996 333.317 C 327.542 333.436,327.197 333.327,327.194 333.063 C 327.191 332.808,327.024 332.342,326.824 332.026 C 326.351 331.277,325.200 332.138,325.200 333.241 C 325.200 333.727,324.819 334.068,324.100 334.225 C 322.055 334.671,320.937 335.238,319.566 336.521 C 318.815 337.225,317.630 338.160,316.933 338.600 C 315.272 339.649,307.860 345.204,305.732 346.996 C 304.815 347.768,303.933 348.400,303.773 348.400 C 303.504 348.400,300.312 350.380,298.000 351.983 C 297.450 352.364,295.740 353.346,294.200 354.166 C 292.660 354.985,290.410 356.275,289.200 357.031 C 285.441 359.382,271.153 366.184,268.000 367.125 C 267.230 367.355,265.070 368.111,263.200 368.805 C 235.131 379.229,203.544 382.498,174.200 378.018 C 171.340 377.582,168.280 377.115,167.400 376.981 C 156.903 375.385,141.717 370.820,127.826 365.085 C 125.457 364.106,113.323 358.053,110.800 356.590 C 109.370 355.762,107.750 354.829,107.200 354.519 C 102.040 351.604,90.810 343.908,88.228 341.517 C 86.970 340.353,85.431 339.130,84.806 338.800 C 84.181 338.470,81.899 336.561,79.735 334.559 C 77.571 332.556,74.630 329.923,73.200 328.709 C 71.770 327.495,69.962 325.803,69.183 324.950 C 68.404 324.098,67.234 322.913,66.583 322.317 C 65.932 321.722,64.981 320.687,64.470 320.017 C 63.958 319.348,63.326 318.800,63.064 318.800 C 62.803 318.800,62.412 318.465,62.195 318.056 C 60.864 315.547,59.573 314.095,58.479 313.876 C 57.698 313.720,57.210 313.327,57.042 312.720 C 56.444 310.558,54.642 309.122,53.363 309.788 C 52.723 310.122,51.314 310.396,50.231 310.398 C 49.000 310.399,48.001 310.637,47.563 311.034 C 46.916 311.619,46.810 311.581,46.167 310.534 C 45.785 309.910,45.051 308.760,44.536 307.978 C 44.021 307.197,43.600 306.411,43.600 306.232 C 43.600 306.054,43.136 305.434,42.570 304.854 C 40.730 302.972,38.441 300.013,37.333 298.085 C 36.738 297.048,35.195 294.435,33.904 292.277 C 31.367 288.037,24.566 274.253,23.407 271.000 C 23.015 269.900,22.288 268.094,21.792 266.987 C 18.932 260.602,14.848 246.597,12.640 235.600 C 0.949 177.375,18.588 115.393,58.875 73.135 C 61.987 69.871,64.767 67.200,65.053 67.200 C 65.338 67.200,65.767 66.836,66.005 66.391 C 66.391 65.670,66.708 65.607,68.919 65.811 C 71.272 66.028,72.936 65.603,72.284 64.950 C 72.123 64.789,71.093 64.698,69.995 64.748 C 67.797 64.849,67.447 64.381,68.973 63.381 C 69.752 62.871,70.120 62.836,70.816 63.209 C 71.445 63.545,71.807 63.553,72.123 63.237 C 72.669 62.691,74.270 62.666,74.599 63.198 C 74.734 63.417,74.388 64.020,73.830 64.537 L 72.815 65.478 74.366 65.942 C 76.054 66.448,77.014 66.261,77.361 65.358 C 77.483 65.040,78.352 64.421,79.292 63.983 C 81.313 63.042,83.669 61.378,84.119 60.573 C 84.295 60.258,84.627 60.000,84.857 60.000 C 85.292 60.000,85.448 59.888,90.522 55.968 C 93.711 53.504,98.927 50.000,99.406 50.000 C 99.553 50.000,100.691 49.320,101.936 48.489 C 103.181 47.658,104.560 46.765,105.000 46.505 C 105.440 46.245,106.610 45.545,107.600 44.950 C 110.937 42.944,119.724 38.377,123.216 36.835 C 124.417 36.304,126.480 35.372,127.800 34.764 C 136.166 30.908,154.777 25.060,163.372 23.587 C 174.135 21.743,178.577 21.110,183.200 20.762 C 186.170 20.538,188.780 20.290,189.000 20.209 C 189.888 19.885,208.966 20.033,214.120 20.405 M180.800 52.640 C 176.755 53.177,169.893 54.496,167.400 55.215 C 140.897 62.861,120.156 77.259,105.444 98.224 C 101.360 104.044,94.734 116.105,93.591 119.800 C 93.319 120.680,92.963 121.580,92.801 121.800 C 91.943 122.966,88.748 134.104,87.638 139.800 C 85.962 148.404,85.812 150.116,85.810 160.800 C 85.807 175.353,86.728 181.406,91.022 195.058 C 93.383 202.564,97.940 212.659,101.198 217.600 C 101.561 218.150,102.922 220.220,104.223 222.200 C 110.737 232.110,122.394 244.162,131.195 250.084 C 132.408 250.900,134.660 252.415,136.200 253.450 C 151.560 263.770,171.448 269.800,191.710 270.281 C 207.302 270.651,211.025 269.482,213.920 263.304 L 215.000 261.000 215.200 206.800 L 215.400 152.600 216.516 150.702 C 220.180 144.469,226.896 146.719,239.371 158.358 C 250.134 168.399,259.127 180.773,264.402 192.800 C 265.319 194.890,266.319 197.157,266.624 197.838 C 267.262 199.263,269.114 204.548,270.369 208.528 C 276.567 228.190,275.344 257.148,267.463 277.304 C 259.762 297.000,243.410 318.576,229.800 327.003 C 229.140 327.411,228.150 328.133,227.600 328.606 C 225.982 329.999,217.043 335.255,211.014 338.360 C 205.364 341.269,201.507 343.879,200.739 345.313 C 198.737 349.055,216.836 348.993,231.600 345.206 C 314.200 324.023,342.819 223.683,283.740 162.405 C 262.840 140.728,234.336 129.069,203.744 129.686 C 193.891 129.885,191.967 130.384,188.820 133.557 C 185.144 137.263,185.411 132.694,185.321 193.495 C 185.232 253.402,185.467 248.935,182.276 251.369 C 177.584 254.948,170.931 251.394,158.000 238.400 C 105.088 185.231,119.638 97.797,187.200 62.922 C 198.956 56.853,201.927 54.217,198.820 52.610 C 197.292 51.820,186.842 51.838,180.800 52.640 M335.021 325.566 C 334.896 325.768,334.980 326.422,335.207 327.019 C 335.435 327.617,335.514 328.442,335.383 328.853 C 335.060 329.871,336.161 329.839,337.200 328.800 C 338.222 327.778,338.236 326.154,337.226 325.614 C 336.269 325.102,335.320 325.081,335.021 325.566 " stroke="none" fill="#23211e" fill-rule="evenodd"></path><path id="path1" d="M0.063 94.500 C 0.097 146.475,0.256 187.200,0.415 185.000 C 0.959 177.464,2.911 163.647,4.229 158.000 C 5.384 153.047,5.710 151.774,7.247 146.200 C 28.090 70.615,95.228 11.629,171.400 1.979 C 172.940 1.784,175.730 1.422,177.600 1.175 C 179.470 0.927,182.800 0.590,185.000 0.425 C 187.200 0.260,146.475 0.097,94.500 0.063 L 0.000 0.000 0.063 94.500 M215.800 0.442 C 218.220 0.614,221.550 0.939,223.200 1.163 C 224.850 1.388,227.460 1.737,229.000 1.939 C 232.904 2.451,243.113 4.307,244.800 4.812 C 245.570 5.042,247.100 5.404,248.200 5.617 C 252.852 6.514,266.085 10.774,274.777 14.171 C 334.391 37.474,382.059 92.975,395.559 154.800 C 395.823 156.010,396.210 157.720,396.419 158.600 C 396.627 159.480,396.971 161.280,397.182 162.600 C 397.393 163.920,397.759 166.080,397.995 167.400 C 398.505 170.253,399.196 175.192,399.590 178.800 C 399.746 180.230,399.902 140.585,399.937 90.700 L 400.000 0.000 305.700 0.065 C 253.835 0.101,213.380 0.270,215.800 0.442 M20.000 144.116 C 19.414 144.411,18.952 145.030,18.883 145.610 C 18.819 146.155,18.601 146.960,18.397 147.400 C 12.163 160.909,8.293 193.920,10.614 213.800 C 11.970 225.409,11.863 225.203,16.529 225.194 C 21.045 225.185,20.950 225.297,20.652 220.345 C 19.860 207.161,20.179 184.968,21.241 179.400 C 21.450 178.300,21.796 175.690,22.009 173.600 C 22.594 167.853,24.557 157.503,25.812 153.546 C 26.492 151.402,26.558 149.545,26.020 147.670 C 25.793 146.878,25.784 145.969,25.997 145.407 C 26.514 144.049,24.033 143.333,22.855 144.500 C 22.451 144.900,22.272 144.861,21.955 144.300 C 21.487 143.471,21.312 143.454,20.000 144.116 M382.481 169.446 C 382.101 169.856,381.758 169.899,381.207 169.604 C 379.289 168.577,378.687 169.034,378.969 171.300 C 379.287 173.849,379.817 180.620,380.435 190.000 C 381.162 201.038,380.103 218.357,377.977 230.200 C 376.508 238.383,375.637 242.897,375.006 245.600 C 373.975 250.018,375.051 251.492,379.009 251.084 C 381.189 250.859,381.193 250.860,381.545 252.129 C 381.852 253.235,381.934 253.296,382.174 252.600 C 382.327 252.160,382.688 251.260,382.979 250.600 C 389.998 234.640,393.135 190.824,388.360 175.440 C 388.162 174.802,388.000 173.713,388.000 173.020 C 388.000 171.545,387.386 170.800,386.169 170.800 C 385.690 170.800,385.066 170.520,384.782 170.178 C 383.896 169.110,383.043 168.839,382.481 169.446 M0.063 305.700 L 0.000 400.000 94.500 399.924 C 146.475 399.883,187.920 399.799,186.600 399.737 C 184.370 399.634,182.664 399.445,174.200 398.367 C 85.119 387.023,14.037 316.610,1.811 227.600 C 1.061 222.137,0.705 218.992,0.431 215.400 C 0.263 213.200,0.097 253.835,0.063 305.700 M399.469 221.500 C 391.051 306.725,325.968 378.403,241.000 396.027 C 234.480 397.380,218.534 399.554,213.800 399.736 C 212.260 399.795,253.525 399.879,305.500 399.922 L 400.000 400.000 400.000 309.600 C 400.000 259.880,399.932 219.200,399.848 219.200 C 399.765 219.200,399.594 220.235,399.469 221.500 " stroke="none" fill="#f6f6f6" fill-rule="evenodd"></path><path id="path2" d="M190.200 21.211 C 186.900 21.362,182.490 21.700,180.400 21.963 C 178.310 22.225,175.340 22.598,173.800 22.791 C 172.260 22.984,168.390 23.706,165.200 24.397 C 162.010 25.087,158.183 25.799,156.696 25.980 C 155.209 26.160,153.769 26.483,153.496 26.697 C 153.223 26.911,151.830 27.456,150.400 27.907 C 141.401 30.748,134.892 32.946,134.200 33.378 C 133.760 33.652,132.320 34.250,131.000 34.706 C 128.563 35.547,118.987 40.142,112.800 43.437 C 109.340 45.280,103.692 48.766,100.414 51.081 C 99.416 51.785,97.610 53.040,96.400 53.869 C 95.190 54.698,93.524 55.966,92.699 56.688 C 91.873 57.410,91.020 58.000,90.802 58.000 C 89.156 58.000,67.431 78.213,63.326 83.563 C 62.382 84.793,60.618 86.970,59.406 88.400 C 54.291 94.433,49.525 101.056,47.603 104.800 C 47.320 105.350,46.329 106.970,45.399 108.400 C 43.292 111.642,37.614 122.043,36.776 124.196 C 36.433 125.078,35.685 126.610,35.115 127.600 C 34.544 128.590,33.708 130.300,33.258 131.400 C 30.622 137.839,28.711 143.093,27.794 146.419 C 27.221 148.499,26.420 151.280,26.014 152.600 C 25.607 153.920,25.169 155.720,25.041 156.600 L 24.807 158.200 25.503 156.554 C 25.886 155.649,26.416 154.652,26.680 154.338 C 26.943 154.024,27.358 152.875,27.602 151.784 C 27.845 150.693,28.299 149.409,28.611 148.931 C 28.923 148.453,29.282 147.463,29.411 146.731 C 29.878 144.057,32.800 142.048,32.800 144.400 C 32.800 144.840,32.980 145.200,33.200 145.200 C 33.420 145.200,33.600 144.660,33.600 144.000 C 33.600 143.340,33.735 142.829,33.900 142.864 C 34.512 142.993,35.600 142.297,35.600 141.776 C 35.600 141.169,39.688 141.439,39.933 142.061 C 40.174 142.673,44.800 142.469,44.800 141.847 C 44.800 140.547,50.519 140.327,51.200 141.600 C 51.655 142.450,54.000 142.765,54.000 141.976 C 54.000 141.737,54.217 141.689,54.500 141.867 C 55.592 142.553,57.512 142.379,57.723 141.575 C 57.834 141.149,58.191 140.800,58.516 140.800 C 58.841 140.800,59.201 140.440,59.316 140.000 C 59.586 138.968,60.414 138.968,60.684 140.000 C 60.844 140.612,61.234 140.802,62.347 140.810 C 64.328 140.823,66.955 141.465,67.126 141.979 C 67.346 142.637,70.400 142.511,70.400 141.843 C 70.400 140.519,79.330 140.349,80.032 141.660 C 80.250 142.067,80.787 142.400,81.227 142.400 C 81.666 142.400,82.133 142.680,82.264 143.023 C 82.396 143.366,82.733 143.558,83.014 143.450 C 83.619 143.218,84.539 145.204,84.321 146.268 C 84.233 146.699,83.889 146.952,83.485 146.882 C 82.639 146.737,82.640 146.764,83.499 148.439 C 84.104 149.617,84.182 150.795,84.083 157.200 C 83.894 169.329,85.727 181.905,89.414 193.781 C 91.177 199.458,94.461 207.821,95.230 208.590 C 95.450 208.810,94.799 207.012,93.783 204.595 C 86.172 186.489,82.866 162.424,85.790 146.400 C 86.090 144.750,86.643 141.690,87.018 139.600 C 89.742 124.395,98.371 105.265,107.568 94.043 C 108.579 92.809,109.877 91.170,110.453 90.400 C 112.145 88.139,122.177 78.190,124.483 76.487 C 125.648 75.626,126.849 74.623,127.153 74.257 C 127.456 73.891,128.986 72.755,130.552 71.731 C 132.119 70.708,133.850 69.466,134.400 68.972 C 134.950 68.477,137.290 67.046,139.600 65.791 C 141.910 64.536,144.250 63.192,144.800 62.805 C 145.905 62.028,149.033 60.703,154.800 58.569 C 156.890 57.795,159.986 56.631,161.680 55.981 C 163.374 55.332,164.994 54.798,165.280 54.796 C 165.566 54.794,167.510 54.341,169.600 53.788 C 179.176 51.258,195.665 50.159,199.014 51.828 C 203.437 54.033,200.523 57.068,187.600 63.717 C 155.761 80.098,135.007 107.450,128.657 141.400 C 127.131 149.555,127.000 151.160,127.003 161.600 C 127.011 191.487,137.807 217.482,158.850 238.283 C 170.999 250.292,177.182 253.837,181.204 251.100 C 184.924 248.568,184.774 251.056,184.769 192.000 C 184.764 133.092,184.572 135.838,188.937 132.280 C 192.283 129.553,195.870 128.794,205.344 128.812 C 228.210 128.854,253.661 136.854,269.200 148.885 C 269.970 149.481,272.130 151.158,274.000 152.611 C 288.770 164.089,300.624 180.274,308.353 199.515 C 309.850 203.242,310.434 205.034,312.229 211.400 C 315.109 221.616,316.474 242.893,314.872 252.600 C 314.581 254.360,314.165 257.060,313.947 258.600 C 312.696 267.445,308.232 280.461,303.178 290.000 C 297.270 301.152,292.312 307.949,283.920 316.400 C 274.791 325.594,270.157 329.056,257.000 336.511 C 249.094 340.991,235.607 345.554,223.400 347.881 C 221.411 348.260,216.793 348.564,211.200 348.683 L 202.200 348.876 200.800 347.907 C 198.271 346.158,199.963 343.604,206.078 339.940 C 207.551 339.057,208.968 338.080,209.227 337.767 C 209.486 337.455,209.877 337.200,210.096 337.200 C 210.970 337.200,217.853 333.854,220.221 332.277 C 221.608 331.355,223.700 330.003,224.871 329.272 C 229.953 326.104,231.741 324.673,238.931 318.017 C 240.942 316.156,243.292 313.818,244.155 312.821 C 245.018 311.824,246.461 310.284,247.362 309.399 C 266.747 290.354,277.636 251.110,272.222 219.800 C 270.894 212.121,267.155 199.450,265.552 197.200 C 265.063 196.514,265.036 196.428,266.888 201.400 C 270.320 210.617,272.718 223.757,272.781 233.692 C 272.800 236.858,271.980 239.884,270.928 240.520 C 270.638 240.696,270.400 241.360,270.400 241.996 C 270.400 242.632,270.220 243.264,270.000 243.400 C 269.780 243.536,269.600 243.997,269.600 244.424 C 269.600 245.502,268.884 245.401,268.728 244.300 C 268.612 243.484,268.357 243.391,266.000 243.302 C 261.592 243.135,260.800 242.903,260.800 241.782 C 260.800 241.067,260.583 240.800,260.000 240.800 C 259.426 240.800,259.200 241.067,259.200 241.744 C 259.200 242.814,257.409 243.195,252.400 243.191 C 248.801 243.188,248.000 242.921,248.000 241.724 C 248.000 240.485,246.660 240.591,246.480 241.844 C 246.350 242.751,242.237 243.194,233.900 243.198 C 230.834 243.200,230.400 243.287,230.400 243.900 C 230.400 244.537,229.839 244.600,224.200 244.600 L 217.999 244.600 217.793 243.400 C 217.680 242.740,217.387 240.940,217.142 239.400 C 216.480 235.236,216.165 157.874,216.797 154.626 C 217.701 149.979,221.575 147.762,224.497 150.220 C 225.387 150.969,225.990 151.178,226.767 151.007 C 227.604 150.823,228.075 151.038,229.013 152.029 C 229.666 152.719,230.522 153.406,230.916 153.556 C 231.932 153.944,235.028 156.319,236.959 158.192 C 237.862 159.068,239.267 160.328,240.082 160.992 C 241.588 162.220,248.578 169.701,250.400 172.036 C 252.707 174.992,257.113 181.403,258.179 183.354 C 258.674 184.259,259.817 186.285,260.720 187.855 C 261.624 189.425,262.937 191.994,263.639 193.564 C 264.341 195.134,264.993 196.340,265.089 196.245 C 266.320 195.014,255.098 176.855,247.759 168.200 C 234.332 152.366,223.322 145.320,218.434 149.432 C 215.685 151.746,215.858 147.884,215.827 207.600 L 215.800 261.400 214.674 263.600 C 211.559 269.684,207.733 271.200,195.495 271.200 C 183.569 271.200,174.217 269.887,163.701 266.735 C 155.141 264.170,151.058 262.420,139.316 256.284 C 124.153 248.361,107.521 230.850,97.235 211.980 C 94.877 207.654,95.235 208.916,97.843 214.122 C 99.766 217.963,101.584 220.867,107.029 228.800 C 107.557 229.570,108.757 231.056,109.695 232.102 C 110.633 233.148,111.544 234.434,111.719 234.960 C 111.895 235.486,112.390 236.009,112.819 236.121 C 113.272 236.239,113.600 236.668,113.600 237.143 C 113.600 237.592,113.877 238.115,114.216 238.305 C 115.103 238.801,114.526 240.094,113.555 239.786 C 113.013 239.614,112.866 239.707,113.025 240.121 C 113.163 240.480,112.926 240.778,112.393 240.918 C 111.924 241.040,111.443 241.514,111.324 241.970 C 111.069 242.944,110.581 243.049,110.255 242.200 C 110.112 241.826,109.502 241.600,108.636 241.600 C 107.872 241.600,107.136 241.420,107.000 241.200 C 106.864 240.980,106.144 240.800,105.400 240.800 C 104.656 240.800,103.936 240.980,103.800 241.200 C 103.434 241.792,95.364 241.709,94.395 241.104 C 93.762 240.709,93.438 240.709,92.805 241.104 C 92.368 241.377,91.489 241.600,90.852 241.600 C 90.030 241.600,89.633 241.832,89.484 242.400 C 89.138 243.725,81.600 243.489,81.600 242.153 C 81.600 241.849,81.240 241.600,80.800 241.600 C 80.356 241.600,80.000 241.867,80.000 242.200 C 80.000 242.633,79.556 242.800,78.400 242.800 C 77.244 242.800,76.800 242.633,76.800 242.200 C 76.800 241.711,76.133 241.600,73.195 241.600 C 71.019 241.600,69.274 241.403,68.795 241.104 C 68.162 240.709,67.838 240.709,67.205 241.104 C 66.768 241.377,65.889 241.600,65.252 241.600 C 64.430 241.600,64.033 241.832,63.884 242.400 C 63.538 243.725,56.000 243.489,56.000 242.153 C 56.000 241.849,55.640 241.600,55.200 241.600 C 54.756 241.600,54.400 241.867,54.400 242.200 C 54.400 242.633,53.956 242.800,52.800 242.800 C 51.636 242.800,51.200 242.635,51.200 242.192 C 51.200 241.664,50.019 241.599,42.100 241.692 L 33.000 241.800 32.877 242.866 C 32.758 243.890,31.867 244.612,31.218 244.211 C 31.047 244.105,30.983 243.610,31.076 243.110 C 31.188 242.511,30.980 242.038,30.469 241.725 C 29.425 241.088,28.000 241.504,28.000 242.447 C 28.000 243.614,26.846 243.335,26.567 242.100 C 25.599 237.814,24.316 233.770,23.713 233.104 C 23.239 232.580,22.987 231.628,22.960 230.258 C 22.889 226.526,22.380 224.104,21.504 223.332 C 20.687 222.611,20.679 222.616,20.954 223.600 C 21.108 224.150,21.411 225.770,21.627 227.200 C 22.810 235.035,26.981 250.775,30.002 258.800 C 30.706 260.670,31.703 263.406,32.217 264.879 C 32.732 266.353,33.520 268.243,33.968 269.079 C 34.417 269.916,35.856 272.940,37.166 275.800 C 39.684 281.296,44.162 289.653,46.382 293.000 C 54.346 305.003,56.363 307.804,60.203 312.200 C 61.549 313.740,62.917 315.393,63.243 315.872 C 64.327 317.466,74.160 327.776,75.995 329.243 C 76.988 330.036,79.321 332.151,81.180 333.943 C 83.040 335.734,84.688 337.200,84.844 337.200 C 84.999 337.200,86.580 338.454,88.356 339.986 C 90.132 341.518,92.160 343.069,92.864 343.433 C 93.568 343.797,95.001 344.748,96.050 345.547 C 101.657 349.820,103.756 351.249,105.870 352.230 C 107.151 352.825,108.560 353.620,109.000 353.998 C 109.440 354.375,110.610 355.108,111.600 355.627 C 112.590 356.145,114.390 357.154,115.600 357.868 C 116.810 358.582,119.888 360.055,122.440 361.142 C 124.992 362.229,127.422 363.314,127.840 363.553 C 128.258 363.792,129.590 364.335,130.800 364.760 C 132.900 365.497,134.622 366.163,139.300 368.045 C 143.165 369.600,152.820 372.285,153.844 372.089 C 154.467 371.970,155.667 372.308,156.978 372.971 C 158.659 373.822,159.882 374.094,162.851 374.278 C 164.913 374.405,167.086 374.755,167.680 375.055 C 168.274 375.355,169.496 375.600,170.394 375.600 C 171.293 375.600,172.427 375.850,172.914 376.155 C 175.189 377.579,210.086 378.400,219.800 377.257 C 222.220 376.972,225.370 376.643,226.800 376.525 C 228.230 376.408,229.670 376.084,230.000 375.806 C 230.330 375.528,231.770 375.196,233.200 375.068 C 236.754 374.750,238.322 374.470,240.200 373.817 C 241.080 373.511,243.150 373.047,244.800 372.785 C 246.450 372.524,248.430 372.049,249.200 371.731 C 249.970 371.413,251.928 370.897,253.551 370.586 C 255.174 370.274,257.154 369.630,257.951 369.154 C 259.279 368.361,261.156 367.760,267.177 366.200 C 268.375 365.890,269.849 365.271,270.454 364.824 C 271.058 364.377,272.689 363.577,274.076 363.047 C 275.464 362.517,278.580 361.050,281.000 359.788 C 283.420 358.525,286.462 356.962,287.761 356.315 C 289.060 355.667,291.387 354.296,292.933 353.268 C 294.479 352.241,296.861 350.770,298.227 350.000 C 301.225 348.309,306.294 344.894,307.435 343.796 C 308.879 342.407,310.334 341.252,311.890 340.259 C 312.721 339.729,313.850 338.805,314.400 338.205 C 314.950 337.606,316.210 336.560,317.200 335.883 C 318.190 335.205,320.086 333.540,321.413 332.183 C 322.740 330.827,324.900 328.849,326.213 327.789 C 327.526 326.728,328.763 325.577,328.963 325.230 C 329.163 324.884,329.982 323.970,330.783 323.200 C 333.071 321.002,339.200 314.063,339.200 313.670 C 339.200 313.476,340.640 311.655,342.400 309.625 C 344.160 307.594,345.600 305.784,345.600 305.602 C 345.600 305.421,346.304 304.381,347.164 303.293 C 349.510 300.325,352.860 295.372,354.801 292.000 C 355.751 290.350,356.949 288.491,357.464 287.869 C 357.979 287.247,358.400 286.546,358.400 286.311 C 358.400 286.075,359.006 284.964,359.748 283.841 C 360.489 282.719,361.683 280.450,362.401 278.800 C 363.119 277.150,363.953 275.445,364.253 275.011 C 364.554 274.577,364.800 273.924,364.800 273.560 C 364.800 273.196,365.072 272.672,365.404 272.397 C 365.736 272.121,366.299 270.896,366.654 269.674 C 367.442 266.963,369.374 262.587,369.935 262.240 C 370.161 262.100,370.546 260.954,370.790 259.693 C 371.034 258.432,371.571 256.590,371.985 255.600 C 373.126 252.867,373.971 250.150,374.846 246.400 C 376.021 241.368,376.150 240.400,375.644 240.400 C 375.400 240.400,375.200 240.580,375.200 240.800 C 375.200 241.020,375.004 241.200,374.764 241.200 C 374.524 241.200,373.998 241.605,373.594 242.100 C 372.926 242.919,372.835 242.937,372.587 242.300 C 372.263 241.468,371.200 241.359,371.200 242.157 C 371.200 242.896,370.314 243.200,368.167 243.200 C 366.667 243.200,366.400 243.079,366.400 242.400 C 366.400 241.777,366.133 241.600,365.195 241.600 C 364.532 241.600,363.632 241.377,363.195 241.104 C 362.562 240.709,362.238 240.709,361.605 241.104 C 360.541 241.769,351.151 241.791,350.491 241.131 C 350.132 240.772,349.780 240.772,348.992 241.131 C 348.426 241.389,346.711 241.600,345.181 241.600 C 342.667 241.600,342.400 241.677,342.400 242.400 C 342.400 242.933,342.133 243.200,341.600 243.200 C 341.067 243.200,340.800 242.933,340.800 242.400 C 340.800 241.777,340.533 241.600,339.595 241.600 C 338.932 241.600,338.032 241.377,337.595 241.104 C 336.962 240.709,336.638 240.709,336.005 241.104 C 334.971 241.750,325.553 241.793,324.914 241.154 C 324.245 240.485,320.333 241.570,320.092 242.491 C 319.815 243.550,317.600 243.474,317.600 242.406 C 317.600 241.969,317.427 240.844,317.216 239.906 C 317.005 238.968,316.637 235.770,316.399 232.800 C 315.905 226.624,315.128 221.188,314.283 218.000 C 313.963 216.790,313.390 214.360,313.009 212.600 C 312.220 208.948,310.890 204.828,309.006 200.200 C 308.289 198.440,307.566 196.550,307.398 196.000 C 306.867 194.251,302.893 186.139,301.216 183.379 C 300.327 181.915,299.600 180.645,299.600 180.555 C 299.600 180.465,298.946 179.461,298.147 178.324 C 297.347 177.187,295.764 174.884,294.628 173.206 C 292.948 170.724,287.349 163.910,285.585 162.200 C 285.359 161.980,283.560 160.135,281.588 158.100 C 279.617 156.065,277.866 154.400,277.697 154.400 C 277.528 154.400,276.283 153.320,274.930 152.000 C 273.576 150.680,272.212 149.600,271.897 149.600 C 271.330 149.600,270.000 148.386,270.000 147.869 C 270.000 147.721,270.390 147.600,270.867 147.600 C 271.343 147.600,271.625 147.492,271.493 147.360 C 271.361 147.228,270.593 147.120,269.787 147.120 C 267.548 147.120,265.764 144.996,267.600 144.516 C 268.040 144.401,268.400 144.155,268.400 143.969 C 268.400 143.712,271.972 142.400,272.673 142.400 C 272.743 142.400,272.800 142.715,272.801 143.100 C 272.801 143.592,273.158 143.825,274.001 143.884 C 274.832 143.942,275.200 143.786,275.200 143.374 C 275.200 142.641,276.797 142.000,278.626 142.000 C 279.581 142.000,280.000 141.817,280.000 141.400 C 280.000 140.482,280.961 140.687,281.405 141.700 L 281.800 142.600 319.751 142.600 L 357.702 142.600 358.300 141.700 C 359.281 140.223,364.800 140.336,364.800 141.833 C 364.800 142.453,364.990 142.803,365.275 142.708 C 366.027 142.458,366.089 141.747,365.418 141.075 C 365.078 140.735,364.800 140.174,364.800 139.829 C 364.800 138.827,365.826 139.101,366.346 140.241 C 366.740 141.107,366.921 141.198,367.420 140.784 C 367.749 140.510,368.095 140.361,368.187 140.453 C 368.797 141.064,370.399 143.721,370.396 144.118 C 370.390 144.886,372.003 149.666,372.786 151.200 C 373.180 151.970,373.634 153.392,373.796 154.359 C 373.958 155.327,374.343 156.724,374.652 157.463 C 374.961 158.202,375.475 159.931,375.795 161.304 C 376.860 165.878,378.101 170.432,378.244 170.290 C 378.465 170.068,377.287 163.222,376.645 161.000 C 376.327 159.900,375.945 158.190,375.795 157.200 C 375.646 156.210,375.199 154.680,374.803 153.800 C 374.407 152.920,373.897 151.480,373.669 150.600 C 372.700 146.857,372.010 144.501,371.443 143.000 C 368.792 135.981,366.227 129.725,364.883 127.000 C 364.231 125.680,363.562 124.150,363.395 123.600 C 363.009 122.327,361.450 119.275,359.615 116.200 C 356.938 111.716,356.757 111.400,356.163 110.200 C 355.837 109.540,355.043 108.190,354.399 107.200 C 353.754 106.210,352.846 104.703,352.380 103.851 C 351.915 102.999,350.406 100.743,349.028 98.838 C 347.649 96.933,346.284 94.930,345.994 94.387 C 345.704 93.844,344.281 92.032,342.833 90.359 C 341.385 88.686,338.490 85.273,336.400 82.774 C 334.310 80.275,330.800 76.514,328.600 74.415 C 326.400 72.317,323.970 69.963,323.200 69.184 C 321.629 67.595,316.995 63.574,314.670 61.780 C 312.101 59.799,310.170 58.290,307.572 56.234 C 306.206 55.152,303.628 53.317,301.844 52.156 C 300.060 50.994,298.167 49.719,297.639 49.322 C 297.110 48.925,295.490 47.934,294.039 47.121 C 292.587 46.307,290.770 45.264,290.000 44.804 C 283.484 40.905,273.305 35.880,270.031 34.946 C 268.804 34.596,267.260 33.986,266.600 33.590 C 263.017 31.439,240.836 24.981,233.631 23.991 C 231.998 23.767,230.468 23.430,230.231 23.243 C 229.994 23.055,228.540 22.783,227.000 22.637 C 225.460 22.491,222.850 22.204,221.200 21.998 C 211.947 20.846,203.101 20.621,190.200 21.211 M133.710 142.500 C 134.119 145.421,134.762 146.683,134.832 144.700 C 134.849 144.205,134.954 144.025,135.065 144.300 C 135.410 145.155,136.000 144.849,136.000 143.814 C 136.000 143.238,136.332 142.650,136.800 142.400 C 137.240 142.165,137.600 141.708,137.600 141.386 C 137.600 141.064,137.960 140.800,138.400 140.800 C 138.840 140.800,139.200 141.049,139.200 141.353 C 139.200 142.118,140.473 142.388,144.100 142.395 C 146.475 142.399,147.200 142.271,147.200 141.847 C 147.200 140.542,153.146 140.309,153.484 141.600 C 153.688 142.378,154.030 142.400,165.833 142.400 C 179.127 142.400,178.800 142.460,178.800 140.016 C 178.800 139.485,179.177 139.037,179.834 138.787 C 181.058 138.322,181.600 138.570,181.600 139.597 C 181.600 140.009,181.948 140.457,182.374 140.592 C 183.498 140.948,183.628 142.691,183.998 162.223 C 184.676 198.005,183.845 244.867,182.524 245.374 C 182.201 245.498,182.000 245.272,182.000 244.787 C 182.000 244.354,181.808 244.000,181.573 244.000 C 181.328 244.000,181.254 243.659,181.400 243.200 C 181.616 242.519,181.472 242.400,180.427 242.400 C 179.752 242.400,179.200 242.580,179.200 242.800 C 179.200 243.020,178.380 243.200,177.378 243.200 C 175.386 243.200,172.092 244.496,171.737 245.419 C 171.464 246.131,170.162 246.184,169.735 245.500 C 169.153 244.569,169.268 244.000,170.035 244.000 C 170.456 244.000,170.800 243.820,170.800 243.600 C 170.800 243.380,170.350 243.200,169.800 243.200 C 169.250 243.200,168.800 243.020,168.800 242.800 C 168.800 242.580,169.083 242.400,169.429 242.400 C 170.322 242.400,171.319 241.288,171.051 240.590 C 170.919 240.244,170.308 240.000,169.575 240.000 C 168.662 240.000,168.269 239.785,168.116 239.200 C 168.001 238.760,167.645 238.400,167.325 238.400 C 166.573 238.400,165.483 239.487,165.770 239.952 C 166.200 240.648,165.024 241.089,163.696 240.729 C 162.690 240.456,162.200 239.967,161.552 238.588 C 160.943 237.291,160.477 236.800,159.856 236.799 C 158.509 236.796,156.620 235.438,155.184 233.437 C 154.458 232.427,153.737 231.600,153.581 231.600 C 153.266 231.600,148.445 225.448,145.498 221.286 C 139.138 212.301,132.426 197.414,130.445 187.893 C 130.022 185.862,129.400 182.850,129.063 181.200 C 127.072 171.464,127.266 150.201,129.375 146.982 C 130.077 145.910,130.209 144.400,129.600 144.400 C 129.088 144.400,129.095 143.394,129.621 141.500 C 129.913 140.449,130.262 140.000,130.787 140.000 C 131.309 140.000,131.621 139.605,131.815 138.700 C 132.443 135.772,132.896 136.680,133.710 142.500 M260.800 141.600 C 260.800 141.820,260.530 142.000,260.200 142.000 C 259.870 142.000,259.600 141.820,259.600 141.600 C 259.600 141.380,259.870 141.200,260.200 141.200 C 260.530 141.200,260.800 141.380,260.800 141.600 M272.400 147.495 C 272.400 148.144,273.359 148.800,274.309 148.800 C 275.843 148.800,275.292 147.429,273.697 147.275 C 272.984 147.206,272.400 147.305,272.400 147.495 M164.800 237.213 C 164.800 237.659,165.078 238.132,165.417 238.262 C 166.253 238.583,166.526 238.227,166.210 237.230 C 165.871 236.162,164.800 236.149,164.800 237.213 M32.032 242.667 C 32.014 243.143,31.775 243.624,31.500 243.735 C 31.108 243.893,31.111 243.944,31.513 243.968 C 32.120 244.006,32.561 243.040,32.269 242.313 C 32.156 242.031,32.049 242.190,32.032 242.667 " stroke="none" fill="#f2ab0d" fill-rule="evenodd"></path><path id="path3" d="M132.331 137.002 C 132.201 137.221,131.969 137.985,131.815 138.700 C 131.621 139.605,131.309 140.000,130.787 140.000 C 130.262 140.000,129.913 140.449,129.621 141.500 C 129.095 143.394,129.088 144.400,129.600 144.400 C 130.209 144.400,130.077 145.910,129.375 146.982 C 127.266 150.201,127.072 171.464,129.063 181.200 C 129.400 182.850,130.022 185.862,130.445 187.893 C 132.426 197.414,139.138 212.301,145.498 221.286 C 148.445 225.448,153.266 231.600,153.581 231.600 C 153.737 231.600,154.458 232.427,155.184 233.437 C 156.620 235.438,158.509 236.796,159.856 236.799 C 160.477 236.800,160.943 237.291,161.552 238.588 C 162.200 239.967,162.690 240.456,163.696 240.729 C 165.024 241.089,166.200 240.648,165.770 239.952 C 165.483 239.487,166.573 238.400,167.325 238.400 C 167.645 238.400,168.001 238.760,168.116 239.200 C 168.269 239.785,168.662 240.000,169.575 240.000 C 170.308 240.000,170.919 240.244,171.051 240.590 C 171.319 241.288,170.322 242.400,169.429 242.400 C 169.083 242.400,168.800 242.580,168.800 242.800 C 168.800 243.020,169.250 243.200,169.800 243.200 C 170.350 243.200,170.800 243.380,170.800 243.600 C 170.800 243.820,170.456 244.000,170.035 244.000 C 169.268 244.000,169.153 244.569,169.735 245.500 C 170.162 246.184,171.464 246.131,171.737 245.419 C 172.092 244.496,175.386 243.200,177.378 243.200 C 178.380 243.200,179.200 243.020,179.200 242.800 C 179.200 242.580,179.752 242.400,180.427 242.400 C 181.472 242.400,181.616 242.519,181.400 243.200 C 181.254 243.659,181.328 244.000,181.573 244.000 C 181.808 244.000,182.000 244.354,182.000 244.787 C 182.000 245.272,182.201 245.498,182.524 245.374 C 183.845 244.867,184.676 198.005,183.998 162.223 C 183.628 142.691,183.498 140.948,182.374 140.592 C 181.948 140.457,181.600 140.009,181.600 139.597 C 181.600 138.570,181.058 138.322,179.834 138.787 C 179.177 139.037,178.800 139.485,178.800 140.016 C 178.800 142.460,179.127 142.400,165.833 142.400 C 154.030 142.400,153.688 142.378,153.484 141.600 C 153.146 140.309,147.200 140.542,147.200 141.847 C 147.200 142.271,146.475 142.399,144.100 142.395 C 140.473 142.388,139.200 142.118,139.200 141.353 C 139.200 141.049,138.840 140.800,138.400 140.800 C 137.960 140.800,137.600 141.064,137.600 141.386 C 137.600 141.708,137.240 142.165,136.800 142.400 C 136.332 142.650,136.000 143.238,136.000 143.814 C 136.000 144.849,135.410 145.155,135.065 144.300 C 134.954 144.025,134.849 144.205,134.832 144.700 C 134.762 146.683,134.119 145.421,133.710 142.500 C 133.163 138.590,132.636 136.490,132.331 137.002 M59.316 140.000 C 59.201 140.440,58.841 140.800,58.516 140.800 C 58.191 140.800,57.834 141.149,57.723 141.575 C 57.512 142.379,55.592 142.553,54.500 141.867 C 54.217 141.689,54.000 141.737,54.000 141.976 C 54.000 142.765,51.655 142.450,51.200 141.600 C 50.519 140.327,44.800 140.547,44.800 141.847 C 44.800 142.469,40.174 142.673,39.933 142.061 C 39.688 141.439,35.600 141.169,35.600 141.776 C 35.600 142.297,34.512 142.993,33.900 142.864 C 33.735 142.829,33.600 143.340,33.600 144.000 C 33.600 144.660,33.420 145.200,33.200 145.200 C 32.980 145.200,32.800 144.840,32.800 144.400 C 32.800 142.048,29.878 144.057,29.411 146.731 C 29.282 147.463,28.923 148.453,28.611 148.931 C 28.299 149.409,27.844 150.697,27.600 151.794 C 27.355 152.890,26.923 154.060,26.639 154.394 C 25.771 155.414,24.001 160.323,23.635 162.728 C 23.000 166.890,21.996 173.751,21.400 178.000 C 19.618 190.700,19.753 221.338,21.599 223.400 C 22.399 224.294,22.883 226.671,22.953 230.058 C 22.985 231.612,23.222 232.562,23.713 233.104 C 24.316 233.770,25.599 237.814,26.567 242.100 C 26.846 243.335,28.000 243.614,28.000 242.447 C 28.000 241.504,29.425 241.088,30.469 241.725 C 30.980 242.038,31.188 242.511,31.076 243.110 C 30.983 243.610,31.047 244.105,31.218 244.211 C 31.867 244.612,32.758 243.890,32.877 242.866 L 33.000 241.800 42.100 241.692 C 50.019 241.599,51.200 241.664,51.200 242.192 C 51.200 242.635,51.636 242.800,52.800 242.800 C 53.956 242.800,54.400 242.633,54.400 242.200 C 54.400 241.867,54.756 241.600,55.200 241.600 C 55.640 241.600,56.000 241.849,56.000 242.153 C 56.000 243.489,63.538 243.725,63.884 242.400 C 64.033 241.832,64.430 241.600,65.252 241.600 C 65.889 241.600,66.768 241.377,67.205 241.104 C 67.838 240.709,68.162 240.709,68.795 241.104 C 69.274 241.403,71.019 241.600,73.195 241.600 C 76.133 241.600,76.800 241.711,76.800 242.200 C 76.800 242.633,77.244 242.800,78.400 242.800 C 79.556 242.800,80.000 242.633,80.000 242.200 C 80.000 241.867,80.356 241.600,80.800 241.600 C 81.240 241.600,81.600 241.849,81.600 242.153 C 81.600 243.489,89.138 243.725,89.484 242.400 C 89.633 241.832,90.030 241.600,90.852 241.600 C 91.489 241.600,92.368 241.377,92.805 241.104 C 93.438 240.709,93.762 240.709,94.395 241.104 C 95.364 241.709,103.434 241.792,103.800 241.200 C 103.936 240.980,104.656 240.800,105.400 240.800 C 106.144 240.800,106.864 240.980,107.000 241.200 C 107.136 241.420,107.872 241.600,108.636 241.600 C 109.502 241.600,110.112 241.826,110.255 242.200 C 110.581 243.049,111.069 242.944,111.324 241.970 C 111.443 241.514,111.924 241.040,112.393 240.918 C 112.926 240.778,113.163 240.480,113.025 240.121 C 112.866 239.707,113.013 239.614,113.555 239.786 C 114.526 240.094,115.103 238.801,114.216 238.305 C 113.877 238.115,113.600 237.592,113.600 237.143 C 113.600 236.668,113.272 236.239,112.819 236.121 C 112.390 236.009,111.895 235.486,111.719 234.960 C 111.544 234.434,110.633 233.148,109.695 232.102 C 108.757 231.056,107.557 229.570,107.029 228.800 C 101.547 220.813,99.765 217.948,97.824 214.000 C 96.580 211.470,95.319 208.950,95.021 208.400 C 88.619 196.581,83.820 174.114,84.083 157.200 C 84.182 150.795,84.104 149.617,83.499 148.439 C 82.640 146.764,82.639 146.737,83.485 146.882 C 83.889 146.952,84.233 146.699,84.321 146.268 C 84.539 145.204,83.619 143.218,83.014 143.450 C 82.733 143.558,82.396 143.366,82.264 143.023 C 82.133 142.680,81.666 142.400,81.227 142.400 C 80.787 142.400,80.250 142.067,80.032 141.660 C 79.330 140.349,70.400 140.519,70.400 141.843 C 70.400 142.511,67.346 142.637,67.126 141.979 C 66.955 141.465,64.328 140.823,62.347 140.810 C 61.234 140.802,60.844 140.612,60.684 140.000 C 60.569 139.560,60.261 139.200,60.000 139.200 C 59.739 139.200,59.431 139.560,59.316 140.000 M364.800 139.829 C 364.800 140.174,365.078 140.735,365.418 141.075 C 366.089 141.747,366.027 142.458,365.275 142.708 C 364.990 142.803,364.800 142.453,364.800 141.833 C 364.800 140.336,359.281 140.223,358.300 141.700 L 357.702 142.600 319.751 142.600 L 281.800 142.600 281.405 141.700 C 280.961 140.687,280.000 140.482,280.000 141.400 C 280.000 141.817,279.581 142.000,278.626 142.000 C 276.797 142.000,275.200 142.641,275.200 143.374 C 275.200 143.786,274.832 143.942,274.001 143.884 C 273.158 143.825,272.801 143.592,272.801 143.100 C 272.800 142.715,272.743 142.400,272.673 142.400 C 271.972 142.400,268.400 143.712,268.400 143.969 C 268.400 144.155,268.040 144.401,267.600 144.516 C 265.764 144.996,267.548 147.120,269.787 147.120 C 270.593 147.120,271.361 147.228,271.493 147.360 C 271.625 147.492,271.343 147.600,270.867 147.600 C 270.390 147.600,270.000 147.752,270.000 147.938 C 270.000 148.433,271.381 149.600,271.966 149.600 C 272.243 149.600,273.576 150.680,274.930 152.000 C 276.283 153.320,277.528 154.400,277.697 154.400 C 277.866 154.400,279.617 156.065,281.588 158.100 C 283.560 160.135,285.359 161.980,285.585 162.200 C 287.349 163.910,292.948 170.724,294.628 173.206 C 295.764 174.884,297.347 177.187,298.147 178.324 C 298.946 179.461,299.600 180.465,299.600 180.555 C 299.600 180.645,300.327 181.915,301.216 183.379 C 302.893 186.139,306.867 194.251,307.398 196.000 C 307.566 196.550,308.289 198.440,309.006 200.200 C 310.890 204.828,312.220 208.948,313.009 212.600 C 313.390 214.360,313.963 216.790,314.283 218.000 C 315.128 221.188,315.905 226.624,316.399 232.800 C 316.637 235.770,317.005 238.968,317.216 239.906 C 317.427 240.844,317.600 241.969,317.600 242.406 C 317.600 243.474,319.815 243.550,320.092 242.491 C 320.333 241.570,324.245 240.485,324.914 241.154 C 325.553 241.793,334.971 241.750,336.005 241.104 C 336.638 240.709,336.962 240.709,337.595 241.104 C 338.032 241.377,338.932 241.600,339.595 241.600 C 340.533 241.600,340.800 241.777,340.800 242.400 C 340.800 242.933,341.067 243.200,341.600 243.200 C 342.133 243.200,342.400 242.933,342.400 242.400 C 342.400 241.677,342.667 241.600,345.181 241.600 C 346.711 241.600,348.426 241.389,348.992 241.131 C 349.780 240.772,350.132 240.772,350.491 241.131 C 351.151 241.791,360.541 241.769,361.605 241.104 C 362.238 240.709,362.562 240.709,363.195 241.104 C 363.632 241.377,364.532 241.600,365.195 241.600 C 366.133 241.600,366.400 241.777,366.400 242.400 C 366.400 243.079,366.667 243.200,368.167 243.200 C 370.314 243.200,371.200 242.896,371.200 242.157 C 371.200 241.359,372.263 241.468,372.587 242.300 C 372.835 242.937,372.926 242.919,373.594 242.100 C 373.998 241.605,374.442 241.200,374.581 241.200 C 375.416 241.200,376.323 239.456,376.766 237.000 C 378.494 227.427,378.897 224.892,379.405 220.400 C 381.605 200.958,380.805 179.614,377.426 167.600 C 376.838 165.510,376.099 162.677,375.785 161.304 C 375.471 159.931,374.961 158.202,374.652 157.463 C 374.343 156.724,373.958 155.327,373.796 154.359 C 373.634 153.392,373.180 151.970,372.786 151.200 C 372.003 149.666,370.390 144.886,370.396 144.118 C 370.399 143.721,368.797 141.064,368.187 140.453 C 368.095 140.361,367.749 140.510,367.420 140.784 C 366.921 141.198,366.740 141.107,366.346 140.241 C 365.826 139.101,364.800 138.827,364.800 139.829 M259.600 141.600 C 259.600 141.820,259.870 142.000,260.200 142.000 C 260.530 142.000,260.800 141.820,260.800 141.600 C 260.800 141.380,260.530 141.200,260.200 141.200 C 259.870 141.200,259.600 141.380,259.600 141.600 M275.126 148.100 C 275.283 148.931,273.651 149.091,272.880 148.320 C 272.064 147.504,272.345 147.144,273.697 147.275 C 274.551 147.357,275.039 147.639,275.126 148.100 M218.735 150.726 C 217.579 151.889,217.170 152.713,216.797 154.626 C 216.165 157.873,216.480 235.233,217.142 239.400 C 217.387 240.940,217.680 242.740,217.793 243.400 L 217.999 244.600 224.200 244.600 C 229.839 244.600,230.400 244.537,230.400 243.900 C 230.400 243.287,230.834 243.200,233.900 243.198 C 242.237 243.194,246.350 242.751,246.480 241.844 C 246.660 240.591,248.000 240.485,248.000 241.724 C 248.000 242.921,248.801 243.188,252.400 243.191 C 257.409 243.195,259.200 242.814,259.200 241.744 C 259.200 241.067,259.426 240.800,260.000 240.800 C 260.583 240.800,260.800 241.067,260.800 241.782 C 260.800 242.903,261.592 243.135,266.000 243.302 C 268.357 243.391,268.612 243.484,268.728 244.300 C 268.884 245.401,269.600 245.502,269.600 244.424 C 269.600 243.997,269.780 243.536,270.000 243.400 C 270.220 243.264,270.400 242.632,270.400 241.996 C 270.400 241.360,270.638 240.696,270.928 240.520 C 274.576 238.312,272.367 216.486,266.989 201.600 C 265.465 197.380,262.649 191.207,260.718 187.850 C 259.816 186.283,258.674 184.259,258.179 183.354 C 257.113 181.403,252.707 174.992,250.400 172.036 C 248.578 169.701,241.588 162.220,240.082 160.992 C 239.267 160.328,237.862 159.068,236.959 158.192 C 235.028 156.319,231.932 153.944,230.916 153.556 C 230.522 153.406,229.666 152.719,229.013 152.029 C 228.075 151.038,227.604 150.823,226.767 151.007 C 225.990 151.178,225.387 150.969,224.497 150.220 C 222.650 148.666,220.605 148.846,218.735 150.726 M166.210 237.230 C 166.526 238.227,166.253 238.583,165.417 238.262 C 164.639 237.963,164.602 236.400,165.373 236.400 C 165.688 236.400,166.065 236.774,166.210 237.230 M32.250 243.413 C 32.126 243.736,31.794 243.986,31.513 243.968 C 31.111 243.944,31.108 243.893,31.500 243.735 C 31.775 243.624,32.014 243.143,32.032 242.667 C 32.049 242.190,32.156 242.031,32.269 242.313 C 32.383 242.595,32.374 243.090,32.250 243.413 " stroke="none" fill="#fbe606" fill-rule="evenodd"></path><path id="path4" d="M185.000 0.425 C 182.800 0.590,179.470 0.927,177.600 1.175 C 175.730 1.422,172.940 1.784,171.400 1.979 C 95.228 11.629,28.090 70.615,7.247 146.200 C 3.851 158.515,3.059 162.572,1.196 177.200 C 0.216 184.899,-0.378 198.155,0.406 194.822 C 0.585 194.064,0.846 191.364,0.987 188.822 C 1.298 183.198,2.616 171.369,3.418 167.000 C 4.540 160.890,4.830 159.391,5.198 157.800 C 5.402 156.920,5.941 154.580,6.395 152.600 C 25.450 69.600,101.963 5.866,188.400 0.994 C 190.930 0.852,194.080 0.593,195.400 0.420 C 198.678 -0.010,190.759 -0.006,185.000 0.425 M204.295 0.357 C 205.007 0.544,207.977 0.816,210.895 0.962 C 218.307 1.333,228.903 2.520,234.600 3.618 C 244.087 5.448,249.446 6.664,254.800 8.204 C 328.055 29.267,383.008 89.656,396.572 164.000 C 397.517 169.179,398.485 176.162,399.002 181.527 C 399.136 182.917,399.419 184.447,399.630 184.927 C 400.099 185.991,399.787 179.011,399.204 175.400 C 398.991 174.080,398.520 171.110,398.157 168.800 C 397.370 163.785,396.549 159.195,396.047 157.000 C 395.845 156.120,395.492 154.500,395.262 153.400 C 386.216 110.243,355.337 64.547,316.615 37.016 C 296.880 22.985,267.735 9.524,249.000 5.787 C 248.340 5.656,246.450 5.213,244.800 4.803 C 241.972 4.101,232.141 2.393,226.400 1.606 C 224.970 1.410,222.450 1.063,220.800 0.835 C 217.004 0.311,202.516 -0.109,204.295 0.357 M189.000 20.209 C 188.780 20.290,186.170 20.538,183.200 20.762 C 178.577 21.110,174.135 21.743,163.372 23.587 C 154.777 25.060,136.166 30.908,127.800 34.764 C 126.480 35.372,124.417 36.304,123.216 36.835 C 119.724 38.377,110.937 42.944,107.600 44.950 C 106.610 45.545,105.440 46.245,105.000 46.505 C 104.560 46.765,103.181 47.658,101.936 48.489 C 100.691 49.320,99.553 50.000,99.406 50.000 C 98.927 50.000,93.711 53.504,90.522 55.968 C 85.448 59.888,85.292 60.000,84.857 60.000 C 84.627 60.000,84.295 60.258,84.119 60.573 C 83.669 61.378,81.313 63.042,79.292 63.983 C 78.352 64.421,77.483 65.040,77.361 65.358 C 77.014 66.261,76.054 66.448,74.366 65.942 L 72.815 65.478 73.830 64.537 C 74.388 64.020,74.734 63.417,74.599 63.198 C 74.270 62.666,72.669 62.691,72.123 63.237 C 71.807 63.553,71.445 63.545,70.816 63.209 C 70.120 62.836,69.752 62.871,68.973 63.381 C 67.447 64.381,67.797 64.849,69.995 64.748 C 71.093 64.698,72.123 64.789,72.284 64.950 C 72.936 65.603,71.272 66.028,68.919 65.811 C 66.708 65.607,66.391 65.670,66.005 66.391 C 65.767 66.836,65.338 67.200,65.053 67.200 C 64.405 67.200,54.092 77.980,50.708 82.194 C 36.175 100.292,26.114 118.710,18.584 141.000 C 5.077 180.984,6.391 232.603,21.792 266.987 C 22.288 268.094,23.015 269.900,23.407 271.000 C 24.566 274.253,31.367 288.037,33.904 292.277 C 35.195 294.435,36.738 297.048,37.333 298.085 C 38.441 300.013,40.730 302.972,42.570 304.854 C 43.136 305.434,43.600 306.054,43.600 306.232 C 43.600 306.411,44.021 307.197,44.536 307.978 C 45.051 308.760,45.785 309.910,46.167 310.534 C 46.810 311.581,46.916 311.619,47.563 311.034 C 48.001 310.637,49.000 310.399,50.231 310.398 C 51.314 310.396,52.723 310.122,53.363 309.788 C 54.642 309.122,56.444 310.558,57.042 312.720 C 57.210 313.327,57.698 313.720,58.479 313.876 C 59.573 314.095,60.864 315.547,62.195 318.056 C 62.412 318.465,62.803 318.800,63.064 318.800 C 63.326 318.800,63.958 319.348,64.470 320.017 C 64.981 320.687,65.932 321.722,66.583 322.317 C 67.234 322.913,68.404 324.098,69.183 324.950 C 69.962 325.803,71.770 327.495,73.200 328.709 C 74.630 329.923,77.571 332.556,79.735 334.559 C 81.899 336.561,84.181 338.470,84.806 338.800 C 85.431 339.130,86.970 340.353,88.228 341.517 C 90.810 343.908,102.040 351.604,107.200 354.519 C 107.750 354.829,109.370 355.762,110.800 356.590 C 113.323 358.053,125.457 364.106,127.826 365.085 C 141.717 370.820,156.903 375.385,167.400 376.981 C 168.280 377.115,171.340 377.582,174.200 378.018 C 203.544 382.498,235.131 379.229,263.200 368.805 C 265.070 368.111,267.230 367.355,268.000 367.125 C 271.153 366.184,285.441 359.382,289.200 357.031 C 290.410 356.275,292.660 354.985,294.200 354.166 C 295.740 353.346,297.450 352.364,298.000 351.983 C 300.312 350.380,303.504 348.400,303.773 348.400 C 303.933 348.400,304.815 347.768,305.732 346.996 C 307.860 345.204,315.272 339.649,316.933 338.600 C 317.630 338.160,318.815 337.225,319.566 336.521 C 320.937 335.238,322.055 334.671,324.100 334.225 C 324.819 334.068,325.200 333.727,325.200 333.241 C 325.200 332.138,326.351 331.277,326.824 332.026 C 327.024 332.342,327.191 332.808,327.194 333.063 C 327.197 333.327,327.542 333.436,327.996 333.317 C 328.776 333.113,328.810 332.517,328.161 330.453 C 327.987 329.900,331.183 326.400,331.861 326.400 C 332.647 326.400,332.450 330.630,331.630 331.372 C 330.458 332.433,330.990 333.107,332.961 333.059 C 334.655 333.018,334.675 333.001,334.638 331.609 C 334.606 330.444,334.735 330.212,335.380 330.269 C 336.580 330.375,338.462 329.249,339.931 327.544 C 340.663 326.695,341.473 325.999,341.731 325.998 C 342.327 325.995,345.606 322.623,348.537 319.000 C 349.783 317.460,351.607 315.210,352.591 314.000 C 353.575 312.790,354.790 311.220,355.290 310.512 C 355.791 309.803,357.202 307.823,358.426 306.112 C 373.195 285.465,385.493 254.886,389.226 229.527 C 389.463 227.917,389.832 225.430,390.046 224.000 C 393.626 200.040,390.864 169.675,382.751 143.800 C 378.375 129.843,367.587 106.937,361.944 99.623 C 360.676 97.979,359.291 95.906,358.455 94.400 C 358.028 93.630,357.210 92.564,356.639 92.030 C 356.068 91.497,355.600 90.826,355.600 90.539 C 355.600 90.253,355.137 89.715,354.572 89.345 C 354.006 88.974,353.178 87.893,352.731 86.943 C 352.285 85.993,351.352 84.862,350.660 84.431 C 349.967 83.999,349.076 83.263,348.679 82.795 C 347.426 81.313,342.165 81.762,341.582 83.400 L 341.155 84.600 340.377 83.656 C 339.950 83.136,339.600 82.281,339.600 81.756 C 339.600 80.705,339.217 80.543,338.481 81.279 C 337.943 81.817,335.200 79.501,335.200 78.509 C 335.200 78.215,334.885 77.865,334.500 77.730 C 333.661 77.436,331.200 75.182,331.200 74.708 C 331.200 74.285,328.534 71.600,328.113 71.600 C 327.941 71.600,326.720 70.593,325.400 69.363 C 322.382 66.550,314.257 59.706,312.400 58.413 C 311.630 57.877,310.190 56.776,309.200 55.966 C 293.300 42.958,263.747 29.482,239.200 24.046 C 232.175 22.490,221.453 20.934,214.120 20.405 C 208.966 20.033,189.888 19.885,189.000 20.209 M213.600 21.238 C 216.130 21.451,219.550 21.793,221.200 21.998 C 222.850 22.204,225.460 22.491,227.000 22.637 C 228.540 22.783,229.994 23.055,230.231 23.243 C 230.468 23.430,231.998 23.767,233.631 23.991 C 240.836 24.981,263.017 31.439,266.600 33.590 C 267.260 33.986,268.804 34.596,270.031 34.946 C 273.305 35.880,283.484 40.905,290.000 44.804 C 290.770 45.264,292.587 46.307,294.039 47.121 C 295.490 47.934,297.110 48.925,297.639 49.322 C 298.167 49.719,300.060 50.994,301.844 52.156 C 303.628 53.317,306.206 55.152,307.572 56.234 C 310.170 58.290,312.101 59.799,314.670 61.780 C 316.995 63.574,321.629 67.595,323.200 69.184 C 323.970 69.963,326.400 72.317,328.600 74.415 C 330.800 76.514,334.310 80.275,336.400 82.774 C 338.490 85.273,341.385 88.686,342.833 90.359 C 344.281 92.032,345.704 93.844,345.994 94.387 C 346.284 94.930,347.649 96.933,349.028 98.838 C 350.406 100.743,351.915 102.999,352.380 103.851 C 352.846 104.703,353.754 106.210,354.399 107.200 C 355.043 108.190,355.837 109.540,356.163 110.200 C 356.757 111.400,356.938 111.716,359.615 116.200 C 361.450 119.275,363.009 122.327,363.395 123.600 C 363.562 124.150,364.231 125.680,364.883 127.000 C 366.227 129.725,368.792 135.981,371.443 143.000 C 372.010 144.501,372.700 146.857,373.669 150.600 C 373.897 151.480,374.407 152.920,374.803 153.800 C 375.199 154.680,375.646 156.210,375.795 157.200 C 375.945 158.190,376.328 159.900,376.646 161.000 C 376.964 162.100,377.500 164.707,377.838 166.792 C 378.444 170.540,378.800 171.751,378.800 170.067 C 378.800 169.110,379.888 168.898,381.199 169.599 C 381.745 169.892,382.104 169.838,382.543 169.400 C 383.074 168.869,383.274 168.914,384.328 169.801 C 384.981 170.350,385.859 170.800,386.278 170.800 C 387.390 170.800,388.000 171.587,388.000 173.020 C 388.000 173.713,388.162 174.802,388.360 175.440 C 393.135 190.824,389.998 234.640,382.979 250.600 C 382.688 251.260,382.327 252.160,382.174 252.600 C 381.933 253.298,381.853 253.238,381.547 252.138 L 381.197 250.876 378.833 251.091 C 376.678 251.286,376.377 251.213,375.435 250.271 L 374.401 249.238 373.849 250.319 C 373.545 250.913,373.163 252.030,373.000 252.800 C 372.837 253.570,372.426 254.740,372.086 255.400 C 371.746 256.060,371.222 257.761,370.923 259.180 C 370.624 260.599,370.129 262.039,369.824 262.380 C 369.076 263.216,367.426 267.019,366.645 269.706 C 366.295 270.910,365.736 272.121,365.404 272.397 C 365.072 272.672,364.800 273.196,364.800 273.560 C 364.800 273.924,364.554 274.577,364.253 275.011 C 363.953 275.445,363.119 277.150,362.401 278.800 C 361.683 280.450,360.489 282.719,359.748 283.841 C 359.006 284.964,358.400 286.075,358.400 286.311 C 358.400 286.546,357.979 287.247,357.464 287.869 C 356.949 288.491,355.751 290.350,354.801 292.000 C 352.860 295.372,349.510 300.325,347.164 303.293 C 346.304 304.381,345.600 305.421,345.600 305.602 C 345.600 305.784,344.160 307.594,342.400 309.625 C 340.640 311.655,339.200 313.476,339.200 313.670 C 339.200 314.063,333.071 321.002,330.783 323.200 C 329.982 323.970,329.163 324.884,328.963 325.230 C 328.763 325.577,327.526 326.728,326.213 327.789 C 324.900 328.849,322.740 330.827,321.413 332.183 C 320.086 333.540,318.190 335.205,317.200 335.883 C 316.210 336.560,314.950 337.606,314.400 338.205 C 313.850 338.805,312.721 339.729,311.890 340.259 C 310.334 341.252,308.879 342.407,307.435 343.796 C 306.294 344.894,301.225 348.309,298.227 350.000 C 296.861 350.770,294.479 352.241,292.933 353.268 C 291.387 354.296,289.060 355.667,287.761 356.315 C 286.462 356.962,283.420 358.525,281.000 359.788 C 278.580 361.050,275.464 362.517,274.076 363.047 C 272.689 363.577,271.058 364.377,270.454 364.824 C 269.849 365.271,268.375 365.890,267.177 366.200 C 261.156 367.760,259.279 368.361,257.951 369.154 C 257.154 369.630,255.174 370.274,253.551 370.586 C 251.928 370.897,249.970 371.413,249.200 371.731 C 248.430 372.049,246.450 372.524,244.800 372.785 C 243.150 373.047,241.080 373.511,240.200 373.817 C 238.322 374.470,236.754 374.750,233.200 375.068 C 231.770 375.196,230.330 375.528,230.000 375.806 C 229.670 376.084,228.230 376.408,226.800 376.525 C 225.370 376.643,222.220 376.972,219.800 377.257 C 210.086 378.400,175.189 377.579,172.914 376.155 C 172.427 375.850,171.293 375.600,170.394 375.600 C 169.496 375.600,168.274 375.355,167.680 375.055 C 167.086 374.755,164.913 374.405,162.851 374.278 C 159.882 374.094,158.659 373.822,156.978 372.971 C 155.667 372.308,154.467 371.970,153.844 372.089 C 152.820 372.285,143.165 369.600,139.300 368.045 C 134.622 366.163,132.900 365.497,130.800 364.760 C 129.590 364.335,128.258 363.792,127.840 363.553 C 127.422 363.314,124.992 362.229,122.440 361.142 C 119.888 360.055,116.810 358.582,115.600 357.868 C 114.390 357.154,112.590 356.145,111.600 355.627 C 110.610 355.108,109.440 354.375,109.000 353.998 C 108.560 353.620,107.151 352.825,105.870 352.230 C 103.756 351.249,101.657 349.820,96.050 345.547 C 95.001 344.748,93.568 343.797,92.864 343.433 C 92.160 343.069,90.132 341.518,88.356 339.986 C 86.580 338.454,84.999 337.200,84.844 337.200 C 84.688 337.200,83.040 335.734,81.180 333.943 C 79.321 332.151,76.988 330.036,75.995 329.243 C 74.160 327.776,64.327 317.466,63.243 315.872 C 62.917 315.393,61.549 313.740,60.203 312.200 C 56.363 307.804,54.346 305.003,46.382 293.000 C 44.162 289.653,39.684 281.296,37.166 275.800 C 35.856 272.940,34.417 269.916,33.968 269.079 C 33.520 268.243,32.732 266.353,32.217 264.879 C 31.703 263.406,30.706 260.670,30.002 258.800 C 28.203 254.020,26.205 247.412,24.621 241.000 C 23.581 236.790,22.051 229.851,21.822 228.300 C 21.153 223.782,21.206 223.936,20.552 224.591 C 19.705 225.438,13.513 225.456,12.672 224.615 C 10.481 222.424,9.166 196.451,10.576 183.200 C 12.068 169.182,15.414 153.864,18.397 147.400 C 18.601 146.960,18.819 146.152,18.883 145.604 C 19.053 144.151,21.117 143.198,21.868 144.225 C 22.283 144.793,22.510 144.850,22.881 144.479 C 23.987 143.373,26.509 144.059,26.027 145.334 C 25.840 145.829,25.903 147.209,26.174 148.558 L 26.647 150.917 27.170 148.558 C 27.650 146.398,29.031 142.342,31.786 135.000 C 32.702 132.559,35.805 125.877,38.010 121.600 C 39.940 117.854,44.919 108.930,45.374 108.400 C 45.657 108.070,46.397 106.900,47.017 105.800 C 50.307 99.969,54.022 94.750,59.406 88.400 C 60.618 86.970,62.382 84.793,63.326 83.563 C 67.431 78.213,89.156 58.000,90.802 58.000 C 91.020 58.000,91.873 57.410,92.699 56.688 C 93.524 55.966,95.190 54.698,96.400 53.869 C 97.610 53.040,99.416 51.785,100.414 51.081 C 103.692 48.766,109.340 45.280,112.800 43.437 C 118.987 40.142,128.563 35.547,131.000 34.706 C 132.320 34.250,133.760 33.652,134.200 33.378 C 134.892 32.946,141.401 30.748,150.400 27.907 C 151.830 27.456,153.223 26.911,153.496 26.697 C 153.769 26.483,155.209 26.160,156.696 25.980 C 158.183 25.799,162.010 25.087,165.200 24.397 C 168.390 23.706,172.260 22.984,173.800 22.791 C 175.340 22.598,178.310 22.225,180.400 21.963 C 188.358 20.962,205.793 20.582,213.600 21.238 M186.800 51.211 C 180.220 51.665,174.997 52.369,172.000 53.205 C 170.570 53.605,168.091 54.220,166.492 54.573 C 164.892 54.925,162.462 55.655,161.092 56.194 C 159.721 56.733,156.890 57.805,154.800 58.575 C 149.090 60.679,145.912 62.023,144.800 62.805 C 144.250 63.192,141.910 64.536,139.600 65.791 C 137.290 67.046,134.950 68.477,134.400 68.972 C 133.850 69.466,132.119 70.708,130.552 71.731 C 128.986 72.755,127.456 73.891,127.153 74.257 C 126.849 74.623,125.648 75.626,124.483 76.487 C 122.177 78.190,112.145 88.139,110.453 90.400 C 109.877 91.170,108.579 92.809,107.568 94.043 C 98.371 105.265,89.742 124.395,87.018 139.600 C 86.643 141.690,86.090 144.750,85.790 146.400 C 82.509 164.385,87.091 191.959,96.437 210.474 C 105.706 228.835,123.819 248.186,139.316 256.284 C 151.058 262.420,155.141 264.170,163.701 266.735 C 174.217 269.887,183.569 271.200,195.495 271.200 C 207.733 271.200,211.559 269.684,214.674 263.600 L 215.800 261.400 215.827 207.600 C 215.858 147.884,215.685 151.746,218.434 149.432 C 222.595 145.931,228.100 148.641,240.309 160.200 C 274.742 192.801,283.568 244.580,262.024 287.600 C 258.047 295.543,251.386 305.445,247.362 309.399 C 246.461 310.284,245.018 311.824,244.155 312.821 C 243.292 313.818,240.942 316.156,238.931 318.017 C 231.741 324.673,229.953 326.104,224.871 329.272 C 223.700 330.003,221.608 331.355,220.221 332.277 C 217.853 333.854,210.970 337.200,210.096 337.200 C 209.877 337.200,209.486 337.455,209.227 337.767 C 208.968 338.080,207.551 339.057,206.078 339.940 C 199.963 343.604,198.271 346.158,200.800 347.907 L 202.200 348.876 211.200 348.683 C 216.793 348.564,221.411 348.260,223.400 347.881 C 235.607 345.554,249.094 340.991,257.000 336.511 C 270.157 329.056,274.791 325.594,283.920 316.400 C 292.312 307.949,297.270 301.152,303.178 290.000 C 308.326 280.284,312.694 267.452,314.004 258.200 C 314.253 256.440,314.669 253.740,314.928 252.200 C 316.478 243.000,315.050 221.404,312.229 211.400 C 310.434 205.034,309.850 203.242,308.353 199.515 C 300.624 180.274,288.770 164.089,274.000 152.611 C 272.130 151.158,269.970 149.481,269.200 148.885 C 253.661 136.854,228.210 128.854,205.344 128.812 C 195.870 128.794,192.283 129.553,188.937 132.280 C 184.572 135.838,184.764 133.092,184.769 192.000 C 184.773 243.563,184.676 247.296,183.282 249.179 C 180.586 252.821,176.752 252.934,171.960 249.513 C 148.213 232.562,132.405 206.575,127.728 176.800 C 126.818 171.009,126.694 152.851,127.529 147.800 C 130.818 127.908,135.047 116.619,144.911 101.400 C 155.331 85.322,168.917 73.329,187.600 63.717 C 205.818 54.344,205.535 49.921,186.800 51.211 M198.820 52.610 C 201.927 54.217,198.956 56.853,187.200 62.922 C 119.638 97.797,105.088 185.231,158.000 238.400 C 170.931 251.394,177.584 254.948,182.276 251.369 C 185.467 248.935,185.232 253.402,185.321 193.495 C 185.411 132.694,185.144 137.263,188.820 133.557 C 193.248 129.092,209.036 128.096,225.375 131.250 C 311.999 147.972,344.850 252.577,283.347 315.849 C 263.944 335.809,234.432 348.446,208.431 347.928 C 197.112 347.702,197.797 345.164,211.014 338.360 C 217.043 335.255,225.982 329.999,227.600 328.606 C 228.150 328.133,229.140 327.411,229.800 327.003 C 243.410 318.576,259.762 297.000,267.463 277.304 C 275.344 257.148,276.567 228.190,270.369 208.528 C 269.114 204.548,267.262 199.263,266.624 197.838 C 266.319 197.157,265.319 194.890,264.402 192.800 C 259.127 180.773,250.134 168.399,239.371 158.358 C 226.896 146.719,220.180 144.469,216.516 150.702 L 215.400 152.600 215.200 206.800 L 215.000 261.000 213.920 263.304 C 211.025 269.482,207.302 270.651,191.710 270.281 C 171.448 269.800,151.560 263.770,136.200 253.450 C 134.660 252.415,132.408 250.900,131.195 250.084 C 122.394 244.162,110.737 232.110,104.223 222.200 C 102.922 220.220,101.561 218.150,101.198 217.600 C 97.940 212.659,93.383 202.564,91.022 195.058 C 86.728 181.406,85.807 175.353,85.810 160.800 C 85.812 150.116,85.962 148.404,87.638 139.800 C 88.748 134.104,91.943 122.966,92.801 121.800 C 92.963 121.580,93.319 120.680,93.591 119.800 C 94.734 116.105,101.360 104.044,105.444 98.224 C 120.156 77.259,140.897 62.861,167.400 55.215 C 176.669 52.541,195.644 50.968,198.820 52.610 M0.222 210.200 C 0.441 217.812,0.727 220.449,2.806 234.000 C 15.748 318.366,88.251 387.755,174.600 398.412 C 176.580 398.657,179.280 399.019,180.600 399.217 C 183.459 399.645,198.291 400.210,197.991 399.879 C 197.876 399.752,194.996 399.457,191.591 399.223 C 181.644 398.541,170.558 397.315,165.600 396.350 C 85.357 380.723,24.179 323.184,6.166 246.400 C 5.274 242.598,4.798 240.314,3.618 234.200 C 2.599 228.911,1.367 218.213,0.971 211.200 C 0.532 203.424,0.007 202.724,0.222 210.200 M399.519 215.400 C 399.370 215.840,399.141 217.280,399.011 218.600 C 392.192 287.771,351.296 347.325,289.306 378.352 C 275.292 385.366,257.198 391.863,244.723 394.360 C 243.775 394.550,241.560 394.997,239.800 395.354 C 230.120 397.318,221.047 398.468,210.854 399.024 C 208.133 399.173,205.433 399.450,204.854 399.641 C 203.548 400.071,216.810 399.693,220.200 399.203 C 221.520 399.013,224.220 398.647,226.200 398.391 C 315.601 386.824,388.132 314.889,398.810 227.200 C 399.011 225.550,399.371 222.612,399.611 220.672 C 400.074 216.921,400.022 213.918,399.519 215.400 M337.226 325.614 C 338.236 326.154,338.222 327.778,337.200 328.800 C 336.161 329.839,335.060 329.871,335.383 328.853 C 335.514 328.442,335.435 327.617,335.207 327.019 C 334.555 325.302,335.463 324.670,337.226 325.614 " stroke="none" fill="#988f78" fill-rule="evenodd"></path></g></svg>